<svg version="1.2" xmlns="http://www.w3.org/2000/svg" viewBox="0 0 500 500" width="32" height="32">
	<style>
		.s0 { opacity: 1;fill: #228aff } 
		.s1 { fill: #eaf8fe } 
		.s2 { fill: #71b4ff } 
		.s3 { fill: #b8dbff } 
		.s4 { fill: #e9f7ff } 
	</style>
	<g>
		<path fill-rule="evenodd" class="s0" d="m228.5-0.5q21 0 42 0 117.82 13.02 186.5 109 36.02 54.31 42.5 119 0 22 0 44-13.46 117.2-109 185.5-54.75 36.33-120 42.5-21 0-42 0-128.82-15-196.5-125-27.02-48.31-32.5-103 0-22 0-44 13.46-117.2 109-185.5 54.75-36.33 120-42.5z"/>
	</g>
	<g>
		<path fill-rule="evenodd" class="s1" d="m117.5 152.5q131.5 0 263 0 0 20.5 0 41-131.5 0-263 0 0-20.5 0-41z"/>
	</g>
	<g>
		<path fill-rule="evenodd" class="s2" d="m116.5 152.5q132.25-1.5 265-1 0.49 21.76-1 43 0-0.5 0-1 0-20.5 0-41-131.5 0-263 0-0.5 0-1 0z"/>
	</g>
	<g>
		<path fill-rule="evenodd" class="s3" d="m116.5 152.5q0.5 0 1 0 0 20.5 0 41 131.5 0 263 0 0 0.5 0 1-132 0-264 0 0-21 0-42z"/>
	</g>
	<g>
		<path fill-rule="evenodd" class="s4" d="m247.5 225.5q67.12 64.87 133 131.5-27.5 1-55 0-38.27-38.52-77-76.5-38.73 37.98-77 76.5-27.5 1-55 0 65.8-65.55 131-131.5z"/>
	</g>
</svg>